<svg width="30" height="30" viewBox="0 0 30 30" fill="none" xmlns="http://www.w3.org/2000/svg">
<path d="M6.5625 3.75C5.67993 3.75 4.76807 4.08325 4.04297 4.7168C3.31787 5.35034 2.8125 6.32446 2.8125 7.5C2.8125 8.49609 3.22998 9.3457 3.75 10.0195C4.27002 10.6934 4.8999 11.2244 5.47852 11.748C6.63574 12.7954 7.5 13.656 7.5 15C7.5 15.1428 7.36084 15.4871 7.17773 15.7617C6.99463 16.0364 6.82617 16.2012 6.82617 16.2012L8.17383 17.5195C8.17383 17.5195 8.47412 17.2192 8.75977 16.7871C9.00513 16.4172 9.27246 15.9412 9.3457 15.3223C9.4519 15.6262 9.55444 15.9375 9.66797 16.2305C10.3125 17.8931 11.0559 19.3835 11.8945 20.5078C12.1985 20.918 12.5134 21.2805 12.8613 21.5918C10.9241 21.731 9.375 23.3423 9.375 25.3125V26.25H20.625V25.3125C20.625 23.3203 19.0466 21.7017 17.0801 21.5918C17.4316 21.2805 17.7686 20.9143 18.0762 20.5078C18.9185 19.3872 19.6509 17.8931 20.3027 16.2305C20.4236 15.9192 20.5408 15.5859 20.6543 15.2637C20.7166 15.9082 20.9875 16.4062 21.2402 16.7871C21.5259 17.2192 21.8262 17.5195 21.8262 17.5195L23.1738 16.2012C23.1738 16.2012 23.0054 16.0364 22.8223 15.7617C22.6392 15.4871 22.5 15.1428 22.5 15C22.5 13.656 23.3643 12.7954 24.5215 11.748C25.1001 11.2244 25.73 10.6934 26.25 10.0195C26.77 9.3457 27.1875 8.49609 27.1875 7.5C27.1875 6.32446 26.6821 5.35034 25.957 4.7168C25.2319 4.08325 24.3201 3.75 23.4375 3.75C22.24 3.75 21.4197 4.29565 20.9766 4.6875H9.02344C8.58032 4.29565 7.76001 3.75 6.5625 3.75ZM6.5625 5.625C7.00562 5.625 7.29126 5.76416 7.5 5.88867C7.52563 7.80029 7.85522 9.96826 8.37891 12.0996C7.88086 11.4258 7.2583 10.8655 6.70898 10.3711C6.11572 9.83643 5.57373 9.34204 5.21484 8.87695C4.85596 8.41187 4.6875 8.00903 4.6875 7.5C4.6875 6.84448 4.94385 6.43799 5.30273 6.12305C5.66162 5.80811 6.15601 5.625 6.5625 5.625ZM23.4375 5.625C23.844 5.625 24.3384 5.80811 24.6973 6.12305C25.0562 6.43799 25.3125 6.84448 25.3125 7.5C25.3125 8.00903 25.144 8.41187 24.7852 8.87695C24.4263 9.34204 23.8843 9.83643 23.291 10.3711C22.7307 10.8765 22.0972 11.4587 21.5918 12.1582C22.1301 10.0122 22.4744 7.82593 22.5 5.88867C22.7087 5.76416 22.9944 5.625 23.4375 5.625ZM9.49219 6.5625H20.5078C20.365 9.34937 19.6436 12.7478 18.5449 15.5566C17.937 17.1094 17.2339 18.457 16.5527 19.3652C15.8716 20.2734 15.249 20.625 14.9707 20.625C14.696 20.625 14.0955 20.2734 13.418 19.3652C12.7405 18.457 12.03 17.113 11.4258 15.5566C10.3345 12.7441 9.63501 9.33472 9.49219 6.5625ZM14.0625 9.375V14.0625H15.9375V9.375H14.0625ZM13.125 23.4375H16.875C17.5488 23.4375 18.0103 23.8513 18.3398 24.375H11.6602C11.9897 23.8513 12.4512 23.4375 13.125 23.4375Z" fill="#F4B740"/>
</svg>
